<svg xmlns="http://www.w3.org/2000/svg" viewBox="-85.4 0 357.4 82">
<g transform="translate(-81.4 3) scale(0.13377) translate(-272.3 -260.3)">
  <path fill="currentColor" d="M600 279.1C597 277.7 591.8 275.7 587.5 274.2C583.1 272.7 578.6 271.2 574.1 269.9C569.6 268.5 565.1 267.3 560.5 266.2C556 265.2 551.4 264.2 546.7 263.4C542.1 262.6 537.4 262 532.7 261.5C528 261 523.3 260.7 518.6 260.5C513.9 260.3 509.1 260.3 504.4 260.5C499.7 260.7 494.9 261 490.2 261.5C485.5 262 480.8 262.7 476.2 263.6C471.5 264.5 466.9 265.5 462.3 266.8C457.8 268 453.2 269.4 448.8 271C444.3 272.5 439.9 274.3 435.6 276.2C431.3 278 427 280 422.8 282.1C418.6 284.2 414.5 286.5 410.4 288.8C406.4 291.1 402.4 293.6 398.5 296.2C394.6 298.7 390.7 301.4 387 304.1C383.2 306.9 379.5 309.8 375.9 312.7C372.4 315.7 368.8 318.7 365.4 321.9C362 325 358.6 328.2 355.4 331.5C352.1 334.8 348.9 338.2 345.8 341.6C342.7 345.1 339.7 348.6 336.8 352.2C333.9 355.8 331.1 359.5 328.3 363.2C325.6 367 323 370.8 320.4 374.6C317.9 378.5 315.4 382.4 313 386.4C310.7 390.4 308.4 394.4 306.2 398.5C304.1 402.6 302 406.7 300 410.9C298 415.1 296.1 419.3 294.3 423.6C292.6 427.9 290.9 432.2 289.3 436.6C287.7 441 286.2 445.4 284.9 449.8C283.5 454.3 282.2 458.8 281.1 463.3C279.9 467.8 278.9 472.3 277.9 476.9C277 481.5 276.2 486.1 275.5 490.7C274.8 495.4 274.2 500 273.7 504.7C273.2 509.4 272.9 514.1 272.6 518.8C272.4 523.5 272.3 528.2 272.3 532.9C272.4 537.7 272.5 542.4 272.8 547.1C273.1 551.9 273.5 556.6 274.1 561.3C274.7 566.1 275.3 570.8 276.2 575.5C277 580.2 278 584.9 279.1 589.5C280.2 594.2 281.5 598.8 282.9 603.4C284.3 608 285.9 612.6 287.6 617.1C289.3 621.6 291.2 626.1 293.2 630.5C295.2 634.9 297.3 639.2 299.6 643.5C301.9 647.8 304.4 652 306.9 656.1C309.5 660.2 312.3 664.2 315.2 668.2C318 672.1 321.1 676 324.2 679.7C327.4 683.4 330.6 687 334.1 690.5C337.5 694 341 697.4 344.7 700.6C348.3 703.9 352.1 707 356 709.9C359.9 712.9 363.9 715.7 367.9 718.4C372 721.1 376.2 723.6 380.4 726C384.7 728.3 389 730.6 393.4 732.6C397.8 734.7 402.3 736.6 406.8 738.4C411.3 740.1 415.8 741.7 420.4 743.2C425 744.6 429.7 745.9 434.3 747C439 748.2 443.7 749.2 448.4 750C453.1 750.8 457.8 751.5 462.6 752.1C467.3 752.6 472 753 476.8 753.3C481.5 753.6 486.2 753.7 491 753.7C495.7 753.7 500.4 753.6 505.1 753.3C509.8 753.1 514.5 752.7 519.2 752.2C523.8 751.6 528.5 751 533.1 750.3C537.7 749.5 542.3 748.6 546.9 747.6C551.4 746.6 556 745.5 560.5 744.3C564.9 743 569.4 741.7 573.8 740.2C578.2 738.7 582.6 737.1 586.9 735.4C591.3 733.7 595.5 731.9 599.8 730C604 728 608.2 726 612.3 723.8C616.4 721.7 620.4 719.4 624.4 717.1C628.4 714.7 632.3 712.2 636.2 709.6C640.1 707.1 643.8 704.4 647.5 701.6C651.2 698.8 654.9 695.9 658.4 692.9C662 690 665.4 686.9 668.8 683.7C672.2 680.6 675.5 677.3 678.7 674C681.9 670.6 685 667.2 688 663.7C691 660.1 693.9 656.5 696.7 652.8C699.5 649.2 702.2 645.4 704.7 641.6C707.3 637.8 709.8 633.8 712.1 629.9C714.5 625.9 716.8 621.9 718.9 617.8C721 613.7 723 609.5 724.9 605.3C726.8 601.1 728.6 596.8 730.2 592.5C731.8 588.2 733.4 583.9 734.8 579.5C736.1 575.1 737.4 570.6 738.5 566.2C739.7 561.7 740.7 557.2 741.6 552.7C742.4 548.2 743.2 543.6 743.8 539.1C744.4 534.5 744.9 529.9 745.3 525.3C745.6 520.8 745.8 516.2 745.9 511.6C746 507 746 502.4 745.8 497.8C745.7 493.2 745.4 488.6 745 484C744.6 479.4 744 474.9 743.3 470.3C742.7 465.8 741.9 461.2 741 456.7C740 452.3 739 447.8 737.8 443.3C736.7 438.9 735.4 434.5 734 430.1C732.6 425.7 731.1 421.3 729.4 417.1C727.8 412.9 725.7 407.6 724.3 404.7C722.9 401.9 722.5 401.3 721.1 400C719.8 398.7 718.1 397.6 716.4 396.9C714.7 396.2 712.6 395.8 710.8 395.8C708.9 395.8 706.9 396.2 705.2 396.9C703.5 397.6 701.8 398.8 700.5 400.1C699.2 401.4 698 403.1 697.3 404.9C696.6 406.6 696.2 408.6 696.2 410.4C696.3 412.3 696.4 413.2 697.4 416C698.4 418.9 700.8 423.8 702.3 427.6C703.8 431.4 705.2 435.2 706.5 439.1C707.7 442.9 708.9 446.8 710 450.7C711 454.6 712 458.6 712.8 462.6C713.6 466.5 714.3 470.5 714.9 474.5C715.5 478.5 716 482.6 716.4 486.6C716.8 490.7 717 494.7 717.1 498.8C717.3 502.8 717.3 506.9 717.2 510.9C717.1 515 716.9 519 716.6 523.1C716.2 527.1 715.8 531.1 715.2 535.1C714.6 539.1 714 543.1 713.2 547.1C712.4 551.1 711.5 555 710.4 558.9C709.4 562.8 708.3 566.7 707 570.6C705.8 574.4 704.4 578.2 702.9 582C701.4 585.7 699.8 589.5 698.1 593.1C696.4 596.8 694.6 600.4 692.7 603.9C690.8 607.5 688.8 611 686.6 614.4C684.5 617.8 682.3 621.2 680 624.5C677.6 627.8 675.2 631 672.7 634.2C670.2 637.3 667.5 640.4 664.8 643.4C662.1 646.4 659.3 649.3 656.5 652.1C653.6 654.9 650.6 657.6 647.6 660.2C644.5 662.9 641.4 665.4 638.2 667.9C635 670.3 631.8 672.7 628.4 674.9C625.1 677.2 621.7 679.4 618.3 681.4C614.8 683.5 611.3 685.4 607.8 687.3C604.2 689.2 600.6 690.9 596.9 692.6C593.3 694.2 589.6 695.8 585.8 697.2C582.1 698.7 578.3 700 574.5 701.3C570.7 702.5 566.9 703.7 563 704.7C559.2 705.8 555.3 706.7 551.4 707.6C547.5 708.4 543.5 709.1 539.6 709.8C535.7 710.4 531.7 710.9 527.8 711.4C523.8 711.8 519.9 712.1 515.9 712.3C511.9 712.5 508 712.5 504 712.5C500.1 712.5 496.1 712.3 492.2 712.1C488.3 711.8 484.4 711.4 480.5 711C476.6 710.5 472.8 709.9 468.9 709.2C465.1 708.4 461.3 707.6 457.6 706.7C453.8 705.7 450.1 704.7 446.4 703.5C442.7 702.3 439.1 701 435.5 699.7C432 698.3 428.4 696.8 425 695.2C421.5 693.6 418.1 691.9 414.7 690C411.4 688.2 408.1 686.3 404.9 684.3C401.7 682.3 398.6 680.2 395.5 678C392.4 675.8 389.4 673.5 386.5 671.1C383.6 668.7 380.7 666.3 378 663.7C375.2 661.2 372.5 658.5 369.9 655.8C367.3 653.1 364.8 650.3 362.4 647.4C359.9 644.5 357.6 641.5 355.3 638.5C353.1 635.5 350.9 632.4 348.8 629.2C346.7 626.1 344.8 622.8 342.9 619.5C341 616.2 339.2 612.9 337.5 609.5C335.8 606.1 334.2 602.6 332.7 599.1C331.2 595.5 329.7 592 328.4 588.4C327.1 584.7 325.9 581.1 324.8 577.4C323.7 573.7 322.7 569.9 321.8 566.1C320.9 562.4 320.2 558.6 319.5 554.7C318.8 550.9 318.2 547 317.7 543.1C317.3 539.3 316.9 535.4 316.6 531.4C316.4 527.5 316.2 523.6 316.1 519.6C316.1 515.7 316.1 511.7 316.3 507.8C316.5 503.8 316.7 499.9 317.1 495.9C317.4 492 317.9 488 318.5 484.1C319.1 480.1 319.7 476.2 320.5 472.3C321.3 468.4 322.2 464.5 323.1 460.6C324.1 456.7 325.2 452.9 326.3 449C327.5 445.2 328.8 441.4 330.1 437.6C331.5 433.8 333 430.1 334.5 426.4C336.1 422.7 337.7 419 339.5 415.4C341.2 411.8 343.1 408.2 345 404.6C346.9 401.1 348.9 397.6 351 394.2C353.1 390.8 355.3 387.4 357.6 384.1C359.9 380.8 362.3 377.5 364.7 374.3C367.2 371.1 369.7 368 372.4 365C375 361.9 377.7 359 380.5 356.1C383.3 353.2 386.1 350.4 389.1 347.7C392 345 395 342.3 398.1 339.8C401.2 337.3 404.4 334.8 407.6 332.5C410.9 330.2 414.2 327.9 417.5 325.8C420.9 323.7 424.3 321.7 427.8 319.8C431.3 317.9 434.9 316.1 438.4 314.5C442 312.8 445.7 311.3 449.4 309.9C453 308.5 456.8 307.2 460.5 306C464.3 304.8 468 303.8 471.8 302.8C475.6 301.8 479.5 300.9 483.3 300.1C487.1 299.4 491 298.7 494.9 298.1C498.7 297.5 502.6 297.1 506.5 296.8C510.4 296.4 514.4 296.2 518.3 296.1C522.2 296 526.2 296 530.1 296.2C534 296.4 538 296.7 541.9 297.1C545.8 297.5 549.7 298.1 553.6 298.8C557.5 299.5 561.4 300.4 565.2 301.4C569.1 302.4 572.8 303.6 576.6 304.9C580.5 306.3 585.3 308.5 588.2 309.4C591.2 310.4 592.4 310.6 594.5 310.5C596.6 310.5 598.8 310 600.7 309.2C602.6 308.3 604.5 307 605.9 305.5C607.3 304 608.6 302.1 609.3 300.2C610.1 298.2 610.5 296 610.4 293.9C610.4 291.8 609.9 289.6 609 287.7C608.2 285.8 606.9 283.9 605.4 282.5C603.9 281.1 603 280.5 600 279.1Z"/>
  <circle fill="#2F63D8" style="fill:var(--color-accent,#2F63D8)" cx="659.5" cy="337.7" r="40"/>
</g>
<g fill="none" stroke="currentColor" stroke-width="5" stroke-linecap="round" stroke-linejoin="round"><path d="M43 25 C 39 15, 27 11, 18 19 C 9 27, 7 46, 15 55 C 23 64, 38 60, 43 47 C 46 39, 45 30, 42 24 C 40 20, 37 17, 34 15"/><path d="M56 61 C 55 52, 55 41, 57 35 C 61 30, 69 30, 72 36 C 74 40, 74 47, 74 52 C 74 56, 74 59, 75 61"/><path d="M83 18 C 93 14, 108 14, 117 17"/><path d="M101 16 C 100 28, 99 43, 99 54 C 99 59, 102 60, 106 57"/><path d="M123 12 C 120 26, 119 44, 119 61 C 119 51, 120 41, 122 36 C 126 31, 133 31, 136 37 C 138 41, 138 48, 138 53 C 138 57, 138 59, 139 61"/><path d="M146 48 C 152 46, 160 44, 165 42 C 167 37, 163 33, 158 34 C 152 35, 147 41, 147 48 C 147 55, 152 62, 160 61 C 164 60, 167 57, 169 54"/><path d="M176 15 C 179 30, 184 48, 189 59 C 193 48, 196 35, 199 26 C 202 36, 206 49, 210 59 C 214 47, 217 29, 219 15"/><path d="M241 37 C 236 32, 227 32, 223 39 C 219 46, 221 56, 228 59 C 234 61, 239 55, 240 47 C 241 41, 241 37, 241 35 C 240 44, 240 53, 241 61"/><path d="M247 35 C 247 43, 249 52, 253 57 C 256 60, 260 58, 262 52 C 264 45, 266 38, 267 35 C 265 46, 262 59, 259 68 C 256 76, 251 79, 246 75"/></g>
</svg>
